<svg width="29" height="31" viewBox="0 0 29 31" fill="none" xmlns="http://www.w3.org/2000/svg">
<path d="M6.64626 14.3792C3.03994 14.0112 1.38391 13.6432 0.427132 14.3424C-1.33923 15.6304 2.63512 17.4335 7.5294 17.6175C12.3134 17.7647 11.5406 14.8944 6.64626 14.3792Z" fill="#45C9C1"/>
<path d="M15.1837 19.8638C13.5278 18.7966 11.3934 18.723 10.9518 19.7534C10.3998 21.0782 9.88464 27.518 10.2894 28.2908C11.0254 29.7628 15.4045 30.6459 15.8829 29.4316C16.5821 27.518 16.1037 20.4526 15.1837 19.8638Z" fill="#45C9C1"/>
<path d="M11.7953 0.101242C10.0657 0.395635 9.51371 9.22742 11.0961 11.141C12.4208 12.7233 16.5791 14.3793 16.4687 9.44822C16.3215 2.38278 16.1743 -0.597941 11.7953 0.101242Z" fill="#45C9C1"/>
<path d="M26.1489 14.3061C24.3825 13.5701 17.2435 13.6069 16.9859 14.3797C16.3603 15.9621 19.3043 17.1396 23.9041 17.1396C28.5408 17.1396 29.6448 15.7781 26.1489 14.3061Z" fill="#45C9C1"/>
</svg>
