<svg width="19" height="18" viewBox="0 0 19 18" fill="none" xmlns="http://www.w3.org/2000/svg">
<path fill-rule="evenodd" clip-rule="evenodd" d="M9.35621 0.230047L11.9246 5.6883L17.6659 6.56378C17.8146 6.58688 17.9379 6.69601 17.9842 6.84545C18.0305 6.9949 17.9918 7.15886 17.8843 7.26866L13.7306 11.5164L14.7113 17.5155C14.7371 17.6702 14.6765 17.8267 14.5551 17.9192C14.4337 18.0116 14.2725 18.0239 14.1396 17.9508L9.004 15.1189L3.86844 17.9516C3.73559 18.025 3.57436 18.0129 3.45285 17.9205C3.33134 17.8281 3.27076 17.6714 3.29669 17.5167L4.27739 11.5164L0.122521 7.26866C0.0150615 7.15886 -0.023621 6.9949 0.0226759 6.84545C0.0689728 6.69601 0.192257 6.58688 0.340889 6.56378L6.08225 5.6883L8.6518 0.230047C8.71719 0.0889101 8.854 -0.000732422 9.004 -0.000732422C9.15401 -0.000732422 9.29082 0.0889101 9.35621 0.230047Z" fill="#00B67A"/>
</svg>
