<svg width="226" height="157" viewBox="0 0 226 157" fill="none" xmlns="http://www.w3.org/2000/svg">
<rect x="5" y="5.65039" width="221" height="151" rx="10" fill="#080A47"/>
<rect x="1.5" y="2.15039" width="218" height="148" rx="8.5" fill="white"/>
<path d="M2 11.6504C2 6.12754 6.47715 1.65039 12 1.65039H193C198.523 1.65039 203 6.12754 203 11.6504V28.6504H2V11.6504Z" fill="white"/>
<path d="M12.4876 23.5529V12.8104H16.4316C17.291 12.8104 17.997 12.9587 18.5494 13.2554C19.1121 13.5419 19.5316 13.9358 19.8078 14.4371C20.0841 14.9282 20.2222 15.4755 20.2222 16.0792C20.2222 16.734 20.0483 17.3325 19.7004 17.8747C19.3628 18.417 18.8308 18.8108 18.1044 19.0564L20.3296 23.5529H18.0737L16.0786 19.3173H14.4519V23.5529H12.4876ZM14.4519 17.8747H16.3088C16.9636 17.8747 17.4445 17.7161 17.7514 17.399C18.0583 17.0818 18.2118 16.6623 18.2118 16.1406C18.2118 15.629 18.0583 15.2198 17.7514 14.9128C17.4547 14.6059 16.9687 14.4524 16.2935 14.4524H14.4519V17.8747ZM25.237 23.7371C24.4697 23.7371 23.7893 23.5734 23.1959 23.246C22.6025 22.9186 22.137 22.4582 21.7994 21.8648C21.4618 21.2714 21.293 20.5859 21.293 19.8084C21.293 19.0206 21.4567 18.3198 21.7841 17.7059C22.1217 17.092 22.5821 16.6163 23.1653 16.2787C23.7587 15.9308 24.4544 15.7569 25.2524 15.7569C25.9992 15.7569 26.6591 15.9206 27.2321 16.248C27.805 16.5754 28.2501 17.0255 28.5672 17.5985C28.8946 18.1612 29.0583 18.7904 29.0583 19.4861C29.0583 19.5986 29.0532 19.7163 29.043 19.8391C29.043 19.9618 29.0379 20.0897 29.0276 20.2227H23.242C23.2829 20.8161 23.4875 21.2816 23.8558 21.6193C24.2344 21.9569 24.6897 22.1257 25.2217 22.1257C25.6207 22.1257 25.9532 22.0387 26.2192 21.8648C26.4954 21.6806 26.7001 21.4453 26.8331 21.1589H28.8281C28.6849 21.6397 28.4445 22.0797 28.1068 22.4787C27.7794 22.8674 27.3702 23.1744 26.8791 23.3995C26.3983 23.6245 25.8509 23.7371 25.237 23.7371ZM25.2524 17.3529C24.7715 17.3529 24.3469 17.491 23.9786 17.7673C23.6103 18.0333 23.375 18.4425 23.2727 18.995H27.0633C27.0326 18.4937 26.8484 18.0947 26.5108 17.798C26.1732 17.5013 25.7537 17.3529 25.2524 17.3529ZM32.4672 23.5529L29.6741 15.941H31.7305L33.6642 21.696L35.5978 15.941H37.6543L34.8459 23.5529H32.4672ZM39.9522 14.7594C39.5941 14.7594 39.2974 14.6519 39.0621 14.4371C38.837 14.2222 38.7245 13.9511 38.7245 13.6237C38.7245 13.2963 38.837 13.0303 39.0621 12.8257C39.2974 12.6109 39.5941 12.5034 39.9522 12.5034C40.3103 12.5034 40.6018 12.6109 40.8269 12.8257C41.0622 13.0303 41.1799 13.2963 41.1799 13.6237C41.1799 13.9511 41.0622 14.2222 40.8269 14.4371C40.6018 14.6519 40.3103 14.7594 39.9522 14.7594ZM38.97 23.5529V15.941H40.9344V23.5529H38.97ZM46.6832 23.7371C45.9159 23.7371 45.2355 23.5734 44.6421 23.246C44.0487 22.9186 43.5832 22.4582 43.2456 21.8648C42.9079 21.2714 42.7391 20.5859 42.7391 19.8084C42.7391 19.0206 42.9028 18.3198 43.2302 17.7059C43.5678 17.092 44.0282 16.6163 44.6114 16.2787C45.2048 15.9308 45.9005 15.7569 46.6985 15.7569C47.4454 15.7569 48.1053 15.9206 48.6782 16.248C49.2512 16.5754 49.6962 17.0255 50.0134 17.5985C50.3408 18.1612 50.5045 18.7904 50.5045 19.4861C50.5045 19.5986 50.4993 19.7163 50.4891 19.8391C50.4891 19.9618 50.484 20.0897 50.4738 20.2227H44.6881C44.7291 20.8161 44.9337 21.2816 45.302 21.6193C45.6805 21.9569 46.1358 22.1257 46.6678 22.1257C47.0668 22.1257 47.3994 22.0387 47.6654 21.8648C47.9416 21.6806 48.1462 21.4453 48.2792 21.1589H50.2743C50.131 21.6397 49.8906 22.0797 49.553 22.4787C49.2256 22.8674 48.8163 23.1744 48.3253 23.3995C47.8444 23.6245 47.297 23.7371 46.6832 23.7371ZM46.6985 17.3529C46.2177 17.3529 45.7931 17.491 45.4248 17.7673C45.0565 18.0333 44.8211 18.4425 44.7188 18.995H48.5094C48.4787 18.4937 48.2946 18.0947 47.9569 17.798C47.6193 17.5013 47.1998 17.3529 46.6985 17.3529ZM53.3455 23.5529L51.1202 15.941H53.0692L54.389 21.4198L55.9237 15.941H58.1029L59.6376 21.4198L60.9727 15.941H62.9217L60.6811 23.5529H58.64L57.0133 17.8594L55.3866 23.5529H53.3455ZM67.3071 23.7371C66.6318 23.7371 66.0384 23.6297 65.5269 23.4148C65.0153 23.1897 64.6061 22.8828 64.2992 22.494C63.9922 22.1052 63.8081 21.6551 63.7467 21.1435H65.7264C65.7878 21.4402 65.9515 21.696 66.2175 21.9108C66.4937 22.1155 66.8467 22.2178 67.2764 22.2178C67.7061 22.2178 68.0181 22.1308 68.2125 21.9569C68.4172 21.783 68.5195 21.5834 68.5195 21.3584C68.5195 21.031 68.3762 20.811 68.0898 20.6985C67.8033 20.5757 67.4043 20.458 66.8927 20.3455C66.5653 20.2739 66.2328 20.1869 65.8952 20.0846C65.5576 19.9823 65.2455 19.8544 64.9591 19.7009C64.6828 19.5372 64.4578 19.3326 64.2838 19.0871C64.1099 18.8313 64.0229 18.5193 64.0229 18.1509C64.0229 17.4757 64.2889 16.9079 64.821 16.4475C65.3632 15.9871 66.1203 15.7569 67.0922 15.7569C67.9926 15.7569 68.7087 15.9666 69.2407 16.3861C69.783 16.8056 70.1053 17.3836 70.2076 18.1203H68.3507C68.2381 17.5575 67.8135 17.2762 67.0769 17.2762C66.7086 17.2762 66.4221 17.3478 66.2175 17.491C66.0231 17.6343 65.9259 17.8133 65.9259 18.0282C65.9259 18.2533 66.0743 18.4323 66.371 18.5653C66.6677 18.6983 67.0615 18.8211 67.5526 18.9336C68.0846 19.0564 68.5706 19.1945 69.0106 19.348C69.4607 19.4912 69.8188 19.7112 70.0848 20.0079C70.3508 20.2943 70.4838 20.7087 70.4838 21.2509C70.494 21.7216 70.3713 22.1462 70.1155 22.5247C69.8597 22.9032 69.4914 23.1999 69.0106 23.4148C68.5297 23.6297 67.9619 23.7371 67.3071 23.7371Z" fill="#080A47"/>
<g clip-path="url(#clip0_9665_17605)">
<rect width="165" height="25.166" transform="translate(0 28.6504)" fill="white"/>
<path d="M22.4295 40.1119C22.4885 39.8168 22.2524 39.4626 21.9573 39.4626L18.5929 38.9904L17.0582 35.9211C16.9992 35.8031 16.9402 35.744 16.8221 35.685C16.527 35.5079 16.1729 35.626 15.9958 35.9211L14.5202 38.9904L11.1557 39.4626C10.9787 39.4626 10.8606 39.5216 10.8016 39.6397C10.5655 39.8758 10.5655 40.2299 10.8016 40.466L13.2216 42.827L12.6314 46.1915C12.6314 46.3095 12.6314 46.4276 12.6904 46.5456C12.8675 46.8407 13.2216 46.9588 13.5167 46.7817L16.527 45.188L19.5373 46.7817C19.5963 46.8407 19.7144 46.8407 19.8324 46.8407C19.8914 46.8407 19.8914 46.8407 19.9505 46.8407C20.2456 46.7817 20.4817 46.4866 20.4227 46.1324L19.8324 42.768L22.2524 40.407C22.3705 40.348 22.4295 40.2299 22.4295 40.1119Z" fill="url(#paint0_linear_9665_17605)"/>
<path d="M36.5955 40.1119C36.6546 39.8168 36.4185 39.4626 36.1233 39.4626L32.7589 38.9904L31.2243 35.9211C31.1652 35.8031 31.1062 35.744 30.9882 35.685C30.693 35.5079 30.3389 35.626 30.1618 35.9211L28.6862 38.9904L25.3218 39.4626C25.1447 39.4626 25.0266 39.5216 24.9676 39.6397C24.7315 39.8758 24.7315 40.2299 24.9676 40.466L27.3876 42.827L26.7974 46.1915C26.7974 46.3095 26.7974 46.4276 26.8564 46.5456C27.0335 46.8407 27.3876 46.9588 27.6828 46.7817L30.693 45.188L33.7033 46.7817C33.7623 46.8407 33.8804 46.8407 33.9984 46.8407C34.0575 46.8407 34.0575 46.8407 34.1165 46.8407C34.4116 46.7817 34.6477 46.4866 34.5887 46.1324L33.9984 42.768L36.4185 40.407C36.5365 40.348 36.5955 40.2299 36.5955 40.1119Z" fill="url(#paint1_linear_9665_17605)"/>
<path d="M50.7615 40.1119C50.8205 39.8168 50.5844 39.4626 50.2893 39.4626L46.9249 38.9904L45.3902 35.9211C45.3312 35.8031 45.2722 35.744 45.1541 35.685C44.859 35.5079 44.5049 35.626 44.3278 35.9211L42.8522 38.9904L39.4877 39.4626C39.3107 39.4626 39.1926 39.5216 39.1336 39.6397C38.8975 39.8758 38.8975 40.2299 39.1336 40.466L41.5536 42.827L40.9634 46.1915C40.9634 46.3095 40.9634 46.4276 41.0224 46.5456C41.1995 46.8407 41.5536 46.9588 41.8487 46.7817L44.859 45.188L47.8693 46.7817C47.9283 46.8407 48.0464 46.8407 48.1644 46.8407C48.2234 46.8407 48.2234 46.8407 48.2825 46.8407C48.5776 46.7817 48.8137 46.4866 48.7547 46.1324L48.1644 42.768L50.5844 40.407C50.7025 40.348 50.7615 40.2299 50.7615 40.1119Z" fill="url(#paint2_linear_9665_17605)"/>
<path d="M64.9275 40.1119C64.9866 39.8168 64.7505 39.4626 64.4553 39.4626L61.0909 38.9904L59.5563 35.9211C59.4972 35.8031 59.4382 35.744 59.3202 35.685C59.025 35.5079 58.6709 35.626 58.4938 35.9211L57.0182 38.9904L53.6538 39.4626C53.4767 39.4626 53.3586 39.5216 53.2996 39.6397C53.0635 39.8758 53.0635 40.2299 53.2996 40.466L55.7196 42.827L55.1294 46.1915C55.1294 46.3095 55.1294 46.4276 55.1884 46.5456C55.3655 46.8407 55.7196 46.9588 56.0148 46.7817L59.025 45.188L62.0353 46.7817C62.0943 46.8407 62.2124 46.8407 62.3304 46.8407C62.3895 46.8407 62.3895 46.8407 62.4485 46.8407C62.7436 46.7817 62.9797 46.4866 62.9207 46.1324L62.3304 42.768L64.7505 40.407C64.8685 40.348 64.9275 40.2299 64.9275 40.1119Z" fill="url(#paint3_linear_9665_17605)"/>
<path d="M79.0935 40.1119C79.1526 39.8168 78.9165 39.4626 78.6214 39.4626L75.2569 38.9904L73.7223 35.9211C73.6632 35.8031 73.6042 35.744 73.4862 35.685C73.191 35.5079 72.8369 35.626 72.6598 35.9211L71.1842 38.9904L67.8198 39.4626C67.6427 39.4626 67.5246 39.5216 67.4656 39.6397C67.2295 39.8758 67.2295 40.2299 67.4656 40.466L69.8856 42.827L69.2954 46.1915C69.2954 46.3095 69.2954 46.4276 69.3544 46.5456C69.5315 46.8407 69.8856 46.9588 70.1808 46.7817L73.191 45.188L76.2013 46.7817C76.2603 46.8407 76.3784 46.8407 76.4964 46.8407C76.5555 46.8407 76.5555 46.8407 76.6145 46.8407C76.9096 46.7817 77.1457 46.4866 77.0867 46.1324L76.4964 42.768L78.9165 40.407C79.0345 40.348 79.0935 40.2299 79.0935 40.1119ZM75.434 42.1778C75.3159 42.2958 75.2569 42.5319 75.2569 42.709L75.6701 45.188L73.4271 44.0075C73.3681 43.9485 73.2501 43.9485 73.132 43.9485V37.5148L74.2535 39.7577C74.3125 39.9348 74.4896 40.0529 74.7257 40.0529L77.2047 40.407L75.434 42.1778Z" fill="#FFC043"/>
<g clip-path="url(#clip1_9665_17605)">
<g clip-path="url(#clip2_9665_17605)">
<path d="M87.2738 43.7334V39.2829L86.4067 39.4824V38.8839L87.5961 38.3621H88.1179V43.7334H87.2738ZM89.5007 43.7794C89.3473 43.7794 89.2194 43.7308 89.1171 43.6336C89.0199 43.5313 88.9713 43.4111 88.9713 43.273C88.9713 43.1298 89.0199 43.0096 89.1171 42.9124C89.2194 42.8101 89.3473 42.7589 89.5007 42.7589C89.6542 42.7589 89.7795 42.8101 89.8767 42.9124C89.9739 43.0096 90.0225 43.1298 90.0225 43.273C90.0225 43.4111 89.9739 43.5313 89.8767 43.6336C89.7795 43.7308 89.6542 43.7794 89.5007 43.7794ZM90.7653 43.7334V43.1502C91.1131 42.874 91.4456 42.5952 91.7628 42.3138C92.08 42.0325 92.3613 41.7563 92.6069 41.4851C92.8575 41.2089 93.0545 40.9403 93.1977 40.6794C93.3409 40.4134 93.4125 40.1577 93.4125 39.9121C93.4125 39.7484 93.3844 39.595 93.3281 39.4517C93.2719 39.3034 93.1798 39.1857 93.0519 39.0988C92.924 39.0067 92.7526 38.9606 92.5378 38.9606C92.2155 38.9606 91.9725 39.0629 91.8088 39.2676C91.6503 39.4722 91.5735 39.7177 91.5786 40.0042H90.7883C90.7934 39.6256 90.8727 39.3085 91.0262 39.0527C91.1847 38.7969 91.3945 38.6025 91.6554 38.4695C91.9214 38.3365 92.2206 38.27 92.5531 38.27C93.0596 38.27 93.4637 38.4133 93.7655 38.6997C94.0724 38.9811 94.2259 39.375 94.2259 39.8814C94.2259 40.1832 94.1517 40.4825 94.0034 40.7792C93.8601 41.0759 93.6709 41.3624 93.4356 41.6386C93.2054 41.9097 92.9573 42.1655 92.6913 42.4059C92.4253 42.6464 92.172 42.8638 91.9316 43.0582H94.387V43.7334H90.7653ZM95.8163 43.7334V39.2829L94.9492 39.4824V38.8839L96.1386 38.3621H96.6604V43.7334H95.8163ZM99.9002 43.8255C99.4142 43.8255 98.9947 43.7104 98.6417 43.4802C98.2939 43.2449 98.0253 42.92 97.8361 42.5057C97.6519 42.0862 97.5598 41.6002 97.5598 41.0478C97.5598 40.4953 97.6519 40.0119 97.8361 39.5975C98.0253 39.178 98.2939 38.8532 98.6417 38.623C98.9947 38.3877 99.4142 38.27 99.9002 38.27C100.386 38.27 100.803 38.3877 101.151 38.623C101.499 38.8532 101.765 39.178 101.949 39.5975C102.138 40.0119 102.233 40.4953 102.233 41.0478C102.233 41.6002 102.138 42.0862 101.949 42.5057C101.765 42.92 101.499 43.2449 101.151 43.4802C100.803 43.7104 100.386 43.8255 99.9002 43.8255ZM99.9002 43.0965C100.192 43.0965 100.45 43.0147 100.675 42.851C100.905 42.6873 101.084 42.452 101.212 42.145C101.34 41.8381 101.404 41.4723 101.404 41.0478C101.404 40.6232 101.34 40.2574 101.212 39.9505C101.084 39.6436 100.905 39.4082 100.675 39.2445C100.45 39.0808 100.192 38.999 99.9002 38.999C99.6035 38.999 99.3426 39.0808 99.1175 39.2445C98.8924 39.4082 98.7159 39.6436 98.588 39.9505C98.4601 40.2574 98.3962 40.6232 98.3962 41.0478C98.3962 41.4723 98.4601 41.8381 98.588 42.145C98.7159 42.452 98.8924 42.6873 99.1175 42.851C99.3426 43.0147 99.6035 43.0965 99.9002 43.0965ZM105.042 43.7334V39.9275H105.771L105.84 40.6488C105.973 40.3981 106.157 40.2011 106.393 40.0579C106.633 39.9096 106.922 39.8354 107.26 39.8354V40.6871H107.037C106.812 40.6871 106.61 40.7255 106.431 40.8022C106.257 40.8738 106.116 40.9992 106.009 41.1782C105.907 41.3521 105.855 41.5951 105.855 41.9072V43.7334H105.042ZM109.632 43.8255C109.259 43.8255 108.926 43.7436 108.635 43.5799C108.348 43.4111 108.123 43.1784 107.959 42.8817C107.796 42.585 107.714 42.2397 107.714 41.8458C107.714 41.4468 107.793 41.0964 107.952 40.7945C108.115 40.4927 108.341 40.2574 108.627 40.0886C108.919 39.9198 109.256 39.8354 109.64 39.8354C110.013 39.8354 110.338 39.9198 110.614 40.0886C110.891 40.2523 111.106 40.4723 111.259 40.7485C111.412 41.0247 111.489 41.3291 111.489 41.6616C111.489 41.7128 111.487 41.769 111.481 41.8304C111.481 41.8867 111.479 41.9506 111.474 42.0223H108.512C108.538 42.3906 108.658 42.6719 108.873 42.8663C109.093 43.0556 109.346 43.1502 109.632 43.1502C109.862 43.1502 110.054 43.0991 110.208 42.9968C110.366 42.8893 110.484 42.7461 110.561 42.5671H111.374C111.272 42.9251 111.067 43.2244 110.76 43.4648C110.458 43.7053 110.082 43.8255 109.632 43.8255ZM109.632 40.503C109.361 40.503 109.121 40.5848 108.911 40.7485C108.701 40.9071 108.573 41.1475 108.527 41.4698H110.676C110.66 41.1731 110.556 40.9378 110.361 40.7638C110.167 40.5899 109.924 40.503 109.632 40.503ZM113.25 43.7334L111.823 39.9275H112.674L113.733 42.9584L114.792 39.9275H115.636L114.217 43.7334H113.25ZM116.765 39.2062C116.612 39.2062 116.484 39.1601 116.381 39.0681C116.284 38.9709 116.236 38.8507 116.236 38.7074C116.236 38.5642 116.284 38.4465 116.381 38.3544C116.484 38.2573 116.612 38.2087 116.765 38.2087C116.918 38.2087 117.044 38.2573 117.141 38.3544C117.243 38.4465 117.294 38.5642 117.294 38.7074C117.294 38.8507 117.243 38.9709 117.141 39.0681C117.044 39.1601 116.918 39.2062 116.765 39.2062ZM116.358 43.7334V39.9275H117.172V43.7334H116.358ZM120.026 43.8255C119.652 43.8255 119.32 43.7436 119.028 43.5799C118.742 43.4111 118.517 43.1784 118.353 42.8817C118.189 42.585 118.107 42.2397 118.107 41.8458C118.107 41.4468 118.187 41.0964 118.345 40.7945C118.509 40.4927 118.734 40.2574 119.02 40.0886C119.312 39.9198 119.65 39.8354 120.033 39.8354C120.407 39.8354 120.732 39.9198 121.008 40.0886C121.284 40.2523 121.499 40.4723 121.652 40.7485C121.806 41.0247 121.883 41.3291 121.883 41.6616C121.883 41.7128 121.88 41.769 121.875 41.8304C121.875 41.8867 121.872 41.9506 121.867 42.0223H118.905C118.931 42.3906 119.051 42.6719 119.266 42.8663C119.486 43.0556 119.739 43.1502 120.026 43.1502C120.256 43.1502 120.448 43.0991 120.601 42.9968C120.76 42.8893 120.877 42.7461 120.954 42.5671H121.767C121.665 42.9251 121.461 43.2244 121.154 43.4648C120.852 43.7053 120.476 43.8255 120.026 43.8255ZM120.026 40.503C119.754 40.503 119.514 40.5848 119.304 40.7485C119.095 40.9071 118.967 41.1475 118.921 41.4698H121.069C121.054 41.1731 120.949 40.9378 120.755 40.7638C120.56 40.5899 120.317 40.503 120.026 40.503ZM123.336 43.7334L122.216 39.9275H123.029L123.766 42.7973L124.595 39.9275H125.5L126.329 42.7973L127.065 39.9275H127.879L126.759 43.7334H125.922L125.047 40.7408L124.173 43.7334H123.336ZM130.068 43.8255C129.587 43.8255 129.191 43.7078 128.879 43.4725C128.567 43.2372 128.388 42.9251 128.342 42.5364H129.163C129.204 42.7103 129.301 42.8612 129.454 42.9891C129.608 43.1119 129.81 43.1733 130.06 43.1733C130.306 43.1733 130.485 43.1221 130.598 43.0198C130.71 42.9175 130.766 42.7998 130.766 42.6668C130.766 42.4724 130.687 42.342 130.529 42.2755C130.375 42.2039 130.16 42.1399 129.884 42.0836C129.669 42.0376 129.454 41.9762 129.239 41.8995C129.03 41.8228 128.853 41.7153 128.71 41.5772C128.572 41.434 128.503 41.2421 128.503 41.0017C128.503 40.6692 128.631 40.393 128.886 40.173C129.142 39.9479 129.5 39.8354 129.961 39.8354C130.385 39.8354 130.728 39.9377 130.989 40.1423C131.255 40.3469 131.411 40.636 131.457 41.0094H130.674C130.649 40.8457 130.572 40.7178 130.444 40.6257C130.321 40.5337 130.155 40.4876 129.945 40.4876C129.741 40.4876 129.582 40.5311 129.47 40.6181C129.357 40.6999 129.301 40.8073 129.301 40.9403C129.301 41.0733 129.378 41.1782 129.531 41.2549C129.69 41.3317 129.897 41.4007 130.153 41.4621C130.408 41.5184 130.644 41.5849 130.859 41.6616C131.078 41.7332 131.255 41.8407 131.388 41.9839C131.521 42.1271 131.587 42.3369 131.587 42.6131C131.593 42.961 131.457 43.25 131.181 43.4802C130.91 43.7104 130.539 43.8255 130.068 43.8255Z" fill="#080A47"/>
</g>
</g>
</g>
<path d="M5.28534 65.7549V60.5408H8.79877V61.4497H6.38774V62.6921H8.61801V63.6011H6.38774V64.846H8.80895V65.7549H5.28534ZM10.5612 61.8443L11.2792 63.2115L12.015 61.8443H13.1276L11.9946 63.7996L13.1581 65.7549H12.0506L11.2792 64.403L10.5205 65.7549H9.40026L10.5612 63.7996L9.44099 61.8443H10.5612ZM15.4138 65.8313C15.0116 65.8313 14.6653 65.7499 14.3751 65.5869C14.0865 65.4223 13.8642 65.1897 13.708 64.8893C13.5519 64.5872 13.4738 64.2299 13.4738 63.8175C13.4738 63.4152 13.5519 63.0622 13.708 62.7583C13.8642 62.4545 14.084 62.2177 14.3674 62.048C14.6526 61.8783 14.987 61.7934 15.3706 61.7934C15.6285 61.7934 15.8687 61.835 16.0911 61.9182C16.3151 61.9996 16.5103 62.1227 16.6766 62.2873C16.8447 62.452 16.9754 62.659 17.0687 62.9086C17.1621 63.1564 17.2087 63.4466 17.2087 63.7793V64.0772H13.9066V63.405H16.1878C16.1878 63.2489 16.1539 63.1105 16.086 62.99C16.0181 62.8695 15.9239 62.7753 15.8034 62.7074C15.6846 62.6378 15.5462 62.603 15.3884 62.603C15.2237 62.603 15.0778 62.6412 14.9505 62.7176C14.8249 62.7923 14.7264 62.8933 14.6551 63.0206C14.5838 63.1462 14.5474 63.2862 14.5457 63.4407V64.0797C14.5457 64.2732 14.5813 64.4404 14.6526 64.5813C14.7256 64.7221 14.8283 64.8308 14.9606 64.9071C15.093 64.9835 15.25 65.0217 15.4317 65.0217C15.5522 65.0217 15.6625 65.0047 15.7626 64.9708C15.8628 64.9368 15.9485 64.8859 16.0198 64.818C16.0911 64.7501 16.1454 64.667 16.1827 64.5685L17.1858 64.6347C17.1349 64.8757 17.0305 65.0862 16.8727 65.2661C16.7165 65.4443 16.5145 65.5835 16.2667 65.6837C16.0206 65.7821 15.7363 65.8313 15.4138 65.8313ZM19.0011 60.5408V65.7549H17.9165V60.5408H19.0011ZM20.9545 60.5408V65.7549H19.8699V60.5408H20.9545ZM23.6055 65.8313C23.2032 65.8313 22.857 65.7499 22.5667 65.5869C22.2782 65.4223 22.0558 65.1897 21.8997 64.8893C21.7435 64.5872 21.6655 64.2299 21.6655 63.8175C21.6655 63.4152 21.7435 63.0622 21.8997 62.7583C22.0558 62.4545 22.2756 62.2177 22.5591 62.048C22.8442 61.8783 23.1786 61.7934 23.5622 61.7934C23.8202 61.7934 24.0604 61.835 24.2827 61.9182C24.5068 61.9996 24.7019 62.1227 24.8683 62.2873C25.0363 62.452 25.167 62.659 25.2604 62.9086C25.3537 63.1564 25.4004 63.4466 25.4004 63.7793V64.0772H22.0983V63.405H24.3795C24.3795 63.2489 24.3455 63.1105 24.2776 62.99C24.2097 62.8695 24.1155 62.7753 23.995 62.7074C23.8762 62.6378 23.7379 62.603 23.58 62.603C23.4154 62.603 23.2694 62.6412 23.1421 62.7176C23.0165 62.7923 22.9181 62.8933 22.8468 63.0206C22.7755 63.1462 22.739 63.2862 22.7373 63.4407V64.0797C22.7373 64.2732 22.773 64.4404 22.8442 64.5813C22.9172 64.7221 23.0199 64.8308 23.1523 64.9071C23.2847 64.9835 23.4417 65.0217 23.6233 65.0217C23.7438 65.0217 23.8541 65.0047 23.9543 64.9708C24.0544 64.9368 24.1401 64.8859 24.2114 64.818C24.2827 64.7501 24.337 64.667 24.3744 64.5685L25.3775 64.6347C25.3266 64.8757 25.2222 65.0862 25.0643 65.2661C24.9082 65.4443 24.7062 65.5835 24.4584 65.6837C24.2123 65.7821 23.928 65.8313 23.6055 65.8313ZM27.1928 63.4941V65.7549H26.1082V61.8443H27.1418V62.5343H27.1877C27.2742 62.3069 27.4193 62.1269 27.623 61.9945C27.8267 61.8605 28.0737 61.7934 28.3639 61.7934C28.6355 61.7934 28.8722 61.8528 29.0742 61.9716C29.2762 62.0904 29.4332 62.2602 29.5452 62.4808C29.6572 62.6998 29.7133 62.9612 29.7133 63.265V65.7549H28.6287V63.4585C28.6304 63.2192 28.5693 63.0325 28.4454 62.8984C28.3215 62.7626 28.1509 62.6947 27.9336 62.6947C27.7877 62.6947 27.6587 62.7261 27.5466 62.7889C27.4363 62.8517 27.3498 62.9433 27.287 63.0639C27.2258 63.1827 27.1944 63.3261 27.1928 63.4941ZM32.6481 61.8443V62.659H30.2931V61.8443H32.6481ZM30.8278 60.9074H31.9123V64.5532C31.9123 64.6534 31.9276 64.7315 31.9582 64.7875C31.9887 64.8418 32.0312 64.88 32.0855 64.902C32.1415 64.9241 32.206 64.9351 32.279 64.9351C32.3299 64.9351 32.3808 64.9309 32.4317 64.9224C32.4826 64.9122 32.5217 64.9046 32.5488 64.8995L32.7194 65.7066C32.6651 65.7235 32.5887 65.7431 32.4903 65.7651C32.3918 65.7889 32.2722 65.8033 32.1313 65.8084C31.8699 65.8186 31.6408 65.7838 31.4439 65.704C31.2487 65.6243 31.0968 65.5003 30.9882 65.3323C30.8795 65.1643 30.8261 64.9521 30.8278 64.6958V60.9074Z" fill="#080A47"/>
<path d="M6.56308 83.2626L4.78505 78.3444H5.93933L7.00041 81.4846C7.01953 81.5372 7.04104 81.6017 7.06494 81.6782C7.08884 81.7499 7.11273 81.8216 7.13663 81.8933C7.16053 81.965 7.17965 82.0295 7.19399 82.0868H7.237C7.25612 82.0343 7.27524 81.9745 7.29436 81.9076C7.31826 81.8359 7.33977 81.7642 7.35888 81.6925C7.38278 81.6208 7.40429 81.5539 7.42341 81.4918L8.48449 78.3444H9.59575L7.81056 83.2626H6.56308ZM11.4783 83.3487C11.0625 83.3487 10.7135 83.2794 10.4316 83.1408C10.1496 82.9974 9.93686 82.7799 9.79347 82.4883C9.65008 82.1968 9.57839 81.8264 9.57839 81.3771C9.57839 80.923 9.65008 80.5526 9.79347 80.2658C9.93686 79.9742 10.1472 79.7592 10.4244 79.6206C10.7064 79.4772 11.0505 79.4055 11.4568 79.4055C11.8392 79.4055 12.1618 79.4748 12.4247 79.6134C12.6875 79.7472 12.8859 79.9575 13.0197 80.2443C13.1536 80.5263 13.2205 80.8919 13.2205 81.3412V81.5993H10.5893C10.5988 81.8192 10.6323 82.0056 10.6897 82.1585C10.7518 82.3115 10.845 82.4262 10.9693 82.5027C11.0983 82.5744 11.268 82.6102 11.4783 82.6102C11.593 82.6102 11.6958 82.5959 11.7866 82.5672C11.8822 82.5385 11.9634 82.4955 12.0303 82.4381C12.0973 82.3808 12.1498 82.3091 12.1881 82.2231C12.2263 82.137 12.2454 82.039 12.2454 81.9291H13.2205C13.2205 82.1681 13.1774 82.376 13.0914 82.5529C13.0054 82.7297 12.8859 82.8779 12.7329 82.9974C12.58 83.1121 12.396 83.2005 12.1809 83.2626C11.9706 83.32 11.7364 83.3487 11.4783 83.3487ZM10.6036 80.9684H12.1952C12.1952 80.825 12.1761 80.7008 12.1379 80.5956C12.1044 80.4904 12.0566 80.4044 11.9945 80.3375C11.9324 80.2706 11.8559 80.2228 11.7651 80.1941C11.679 80.1607 11.5811 80.1439 11.4711 80.1439C11.2895 80.1439 11.1365 80.175 11.0123 80.2371C10.8928 80.2945 10.7996 80.3853 10.7327 80.5096C10.6705 80.6291 10.6275 80.782 10.6036 80.9684ZM13.9516 83.2626V79.4915H14.7761L14.855 80.0794H14.9052C14.953 79.9551 15.0151 79.8428 15.0916 79.7424C15.1681 79.6373 15.2636 79.5536 15.3784 79.4915C15.4931 79.4294 15.6269 79.3983 15.7798 79.3983C15.8611 79.3983 15.9352 79.4079 16.0021 79.427C16.069 79.4413 16.1192 79.4557 16.1527 79.47V80.3733H15.8444C15.6962 80.3733 15.5648 80.3949 15.4501 80.4379C15.3401 80.4761 15.2469 80.5382 15.1704 80.6243C15.094 80.7103 15.0366 80.8155 14.9984 80.9397C14.9649 81.064 14.9482 81.2098 14.9482 81.3771V83.2626H13.9516ZM17.2201 84.6105C17.0432 84.6105 16.895 84.5962 16.7756 84.5675C16.6608 84.5436 16.5868 84.5268 16.5533 84.5173V83.8434H16.9906C17.1101 83.8434 17.2177 83.8147 17.3133 83.7573C17.4089 83.7048 17.4925 83.6331 17.5642 83.5422C17.6359 83.4562 17.6885 83.363 17.7219 83.2626L16.245 79.4915H17.2989L17.9442 81.2337C17.9729 81.3149 18.0039 81.4177 18.0374 81.542C18.0756 81.6615 18.1139 81.7881 18.1521 81.9219C18.1903 82.051 18.2214 82.1657 18.2453 82.2661H18.2811C18.3003 82.1992 18.3218 82.1203 18.3457 82.0295C18.3696 81.9387 18.3935 81.8455 18.4174 81.7499C18.446 81.6543 18.4723 81.5635 18.4962 81.4774C18.5249 81.3866 18.5488 81.3078 18.5679 81.2409L19.1056 79.4915H20.1093L18.826 83.0834C18.7543 83.2937 18.6707 83.4897 18.5751 83.6713C18.4843 83.8577 18.3767 84.0202 18.2525 84.1588C18.1282 84.3022 17.98 84.4121 17.808 84.4886C17.6407 84.5699 17.4447 84.6105 17.2201 84.6105ZM22.6198 84.6105C22.4525 84.6105 22.2948 84.5746 22.1466 84.5029C21.9985 84.436 21.879 84.3357 21.7882 84.2018C21.6974 84.068 21.652 83.9079 21.652 83.7215C21.652 83.5112 21.7117 83.3439 21.8312 83.2196C21.9555 83.0906 22.0941 82.995 22.247 82.9328C22.1371 82.8707 22.0463 82.7895 21.9746 82.6891C21.9077 82.5887 21.8742 82.4716 21.8742 82.3378C21.8742 82.1514 21.9411 82.0008 22.075 81.8861C22.2136 81.7666 22.3713 81.6901 22.5481 81.6567C22.3713 81.5467 22.2327 81.4081 22.1323 81.2409C22.0367 81.0688 21.9889 80.8776 21.9889 80.6673C21.9889 80.3949 22.0558 80.1654 22.1897 79.979C22.3283 79.7926 22.5242 79.6516 22.7776 79.556C23.0357 79.4557 23.3392 79.4055 23.6881 79.4055C23.8267 79.4055 23.9557 79.4126 24.0752 79.427C24.1995 79.4413 24.3118 79.4652 24.4122 79.4987C24.589 79.3935 24.7085 79.2788 24.7707 79.1545C24.8376 79.0255 24.8734 78.9227 24.8782 78.8463H25.8031C25.8031 79.0231 25.7696 79.1761 25.7027 79.3051C25.6406 79.4342 25.5497 79.5417 25.4303 79.6277C25.3108 79.709 25.1674 79.7687 25.0001 79.807C25.1244 79.9121 25.22 80.0388 25.2869 80.1869C25.3538 80.3351 25.3872 80.4952 25.3872 80.6673C25.3872 80.935 25.3227 81.1644 25.1937 81.3556C25.0646 81.542 24.8806 81.6854 24.6416 81.7857C24.4074 81.8861 24.1254 81.9363 23.7956 81.9363H23.2221C23.1074 81.9363 23.0213 81.9578 22.964 82.0008C22.9066 82.039 22.8779 82.0964 22.8779 82.1729C22.8779 82.235 22.9018 82.29 22.9496 82.3378C23.0022 82.3808 23.0858 82.4023 23.2006 82.4023H24.7707C25.0861 82.4023 25.3371 82.5003 25.5235 82.6962C25.7146 82.8874 25.8102 83.1336 25.8102 83.4347C25.8102 83.6641 25.7505 83.8673 25.631 84.0441C25.5115 84.221 25.3466 84.3596 25.1363 84.4599C24.926 84.5603 24.6846 84.6105 24.4122 84.6105H22.6198ZM23.0357 83.9437H24.362C24.448 83.9437 24.5245 83.927 24.5914 83.8935C24.6583 83.8649 24.7109 83.8219 24.7492 83.7645C24.7874 83.7119 24.8065 83.6498 24.8065 83.5781C24.8065 83.4538 24.7683 83.3606 24.6918 83.2985C24.6153 83.2363 24.5197 83.2053 24.405 83.2053H23.0357C22.9209 83.2053 22.8254 83.2387 22.7489 83.3057C22.6772 83.3726 22.6413 83.461 22.6413 83.5709C22.6413 83.6809 22.6772 83.7693 22.7489 83.8362C22.8254 83.9079 22.9209 83.9437 23.0357 83.9437ZM23.6881 81.291C23.9223 81.291 24.0991 81.2385 24.2186 81.1333C24.3429 81.0234 24.405 80.868 24.405 80.6673C24.405 80.4666 24.3429 80.3136 24.2186 80.2085C24.0991 80.0985 23.9223 80.0436 23.6881 80.0436C23.4587 80.0436 23.2818 80.0985 23.1575 80.2085C23.038 80.3136 22.9783 80.4666 22.9783 80.6673C22.9783 80.7963 23.0046 80.9087 23.0572 81.0043C23.1097 81.0999 23.1886 81.1715 23.2938 81.2193C23.3989 81.2671 23.5304 81.291 23.6881 81.291ZM28.0931 83.3487C27.6821 83.3487 27.3332 83.2794 27.0464 83.1408C26.7596 82.9974 26.5422 82.7799 26.394 82.4883C26.2458 82.192 26.1717 81.8216 26.1717 81.3771C26.1717 80.923 26.2458 80.5526 26.394 80.2658C26.5422 79.9742 26.7596 79.7592 27.0464 79.6206C27.3332 79.4772 27.6821 79.4055 28.0931 79.4055C28.5138 79.4055 28.8651 79.4772 29.1471 79.6206C29.4338 79.7592 29.6513 79.9742 29.7995 80.2658C29.9476 80.5526 30.0217 80.923 30.0217 81.3771C30.0217 81.8216 29.9476 82.192 29.7995 82.4883C29.6513 82.7799 29.4338 82.9974 29.1471 83.1408C28.8651 83.2794 28.5138 83.3487 28.0931 83.3487ZM28.0931 82.5744C28.313 82.5744 28.4875 82.5337 28.6165 82.4525C28.7503 82.3712 28.8483 82.247 28.9105 82.0797C28.9726 81.9124 29.0037 81.7069 29.0037 81.4631V81.291C29.0037 81.0473 28.9726 80.8418 28.9105 80.6745C28.8483 80.5072 28.7503 80.3829 28.6165 80.3017C28.4875 80.2156 28.313 80.1726 28.0931 80.1726C27.8781 80.1726 27.7036 80.2156 27.5698 80.3017C27.4407 80.3829 27.3451 80.5072 27.283 80.6745C27.2209 80.8418 27.1898 81.0473 27.1898 81.291V81.4631C27.1898 81.7069 27.2209 81.9124 27.283 82.0797C27.3451 82.247 27.4407 82.3712 27.5698 82.4525C27.7036 82.5337 27.8781 82.5744 28.0931 82.5744ZM32.49 83.3487C32.079 83.3487 31.7301 83.2794 31.4433 83.1408C31.1565 82.9974 30.939 82.7799 30.7909 82.4883C30.6427 82.192 30.5686 81.8216 30.5686 81.3771C30.5686 80.923 30.6427 80.5526 30.7909 80.2658C30.939 79.9742 31.1565 79.7592 31.4433 79.6206C31.7301 79.4772 32.079 79.4055 32.49 79.4055C32.9106 79.4055 33.2619 79.4772 33.5439 79.6206C33.8307 79.7592 34.0482 79.9742 34.1964 80.2658C34.3445 80.5526 34.4186 80.923 34.4186 81.3771C34.4186 81.8216 34.3445 82.192 34.1964 82.4883C34.0482 82.7799 33.8307 82.9974 33.5439 83.1408C33.2619 83.2794 32.9106 83.3487 32.49 83.3487ZM32.49 82.5744C32.7099 82.5744 32.8843 82.5337 33.0134 82.4525C33.1472 82.3712 33.2452 82.247 33.3073 82.0797C33.3695 81.9124 33.4005 81.7069 33.4005 81.4631V81.291C33.4005 81.0473 33.3695 80.8418 33.3073 80.6745C33.2452 80.5072 33.1472 80.3829 33.0134 80.3017C32.8843 80.2156 32.7099 80.1726 32.49 80.1726C32.2749 80.1726 32.1005 80.2156 31.9667 80.3017C31.8376 80.3829 31.742 80.5072 31.6799 80.6745C31.6177 80.8418 31.5867 81.0473 31.5867 81.291V81.4631C31.5867 81.7069 31.6177 81.9124 31.6799 82.0797C31.742 82.247 31.8376 82.3712 31.9667 82.4525C32.1005 82.5337 32.2749 82.5744 32.49 82.5744ZM36.4854 83.3487C36.1748 83.3487 35.9047 83.2794 35.6753 83.1408C35.4506 82.9974 35.2762 82.7799 35.1519 82.4883C35.0276 82.1968 34.9655 81.824 34.9655 81.3699C34.9655 80.9158 35.0276 80.5454 35.1519 80.2586C35.281 79.9671 35.4554 79.752 35.6753 79.6134C35.8999 79.4748 36.158 79.4055 36.4496 79.4055C36.6121 79.4055 36.7626 79.4246 36.9013 79.4628C37.0446 79.4963 37.1689 79.5513 37.2741 79.6277C37.384 79.7042 37.4772 79.7974 37.5537 79.9073H37.5967V78.0791H38.5932V83.2626H37.7759L37.6971 82.7536H37.6469C37.5226 82.9543 37.3601 83.1049 37.1594 83.2053C36.9586 83.3009 36.734 83.3487 36.4854 83.3487ZM36.8009 82.5314C36.9873 82.5314 37.1378 82.4883 37.2526 82.4023C37.372 82.3163 37.4605 82.192 37.5178 82.0295C37.5752 81.867 37.6039 81.6734 37.6039 81.4488V81.3197C37.6039 81.1524 37.5871 80.9995 37.5537 80.8609C37.525 80.7223 37.4772 80.6075 37.4103 80.5167C37.3434 80.4211 37.2597 80.3494 37.1594 80.3017C37.059 80.2491 36.9395 80.2228 36.8009 80.2228C36.6001 80.2228 36.44 80.2634 36.3205 80.3447C36.201 80.4211 36.115 80.5406 36.0624 80.7031C36.0099 80.8609 35.9836 81.0592 35.9836 81.2982V81.4631C35.9836 81.7021 36.0099 81.9004 36.0624 82.0582C36.115 82.2159 36.201 82.3354 36.3205 82.4166C36.44 82.4931 36.6001 82.5314 36.8009 82.5314Z" fill="#080A47"/>
<path d="M4.67213 101.77L6.56486 96.8521H7.88404L9.77677 101.77H8.62249L8.27119 100.802H6.12753L5.77622 101.77H4.67213ZM6.43581 99.9421H7.9629L7.52557 98.7305C7.50645 98.6779 7.48255 98.6158 7.45387 98.5441C7.42998 98.4676 7.40369 98.384 7.37501 98.2931C7.34633 98.2023 7.31765 98.1139 7.28898 98.0279C7.26508 97.9371 7.24118 97.8558 7.21728 97.7841H7.17427C7.15037 97.8749 7.1193 97.9825 7.08106 98.1067C7.04283 98.2262 7.00459 98.3433 6.96635 98.458C6.92811 98.568 6.89705 98.6588 6.87315 98.7305L6.43581 99.9421ZM11.097 101.77L9.6918 97.9992H10.7457L11.2978 99.5908C11.3264 99.6721 11.3599 99.7796 11.3981 99.9134C11.4411 100.047 11.4842 100.188 11.5272 100.336C11.5702 100.485 11.606 100.618 11.6347 100.738H11.6706C11.704 100.628 11.7399 100.501 11.7781 100.358C11.8164 100.21 11.8546 100.069 11.8928 99.9349C11.9358 99.7963 11.9717 99.6816 12.0004 99.5908L12.5524 97.9992H13.5561L12.1438 101.77H11.097ZM15.7563 101.856C15.3404 101.856 14.9915 101.787 14.7095 101.648C14.4275 101.505 14.2148 101.288 14.0714 100.996C13.9281 100.704 13.8564 100.334 13.8564 99.8848C13.8564 99.4307 13.9281 99.0603 14.0714 98.7735C14.2148 98.4819 14.4251 98.2669 14.7024 98.1282C14.9843 97.9849 15.3285 97.9132 15.7348 97.9132C16.1171 97.9132 16.4397 97.9825 16.7026 98.1211C16.9655 98.2549 17.1639 98.4652 17.2977 98.752C17.4315 99.034 17.4984 99.3996 17.4984 99.8489V100.107H14.8672C14.8768 100.327 14.9103 100.513 14.9676 100.666C15.0298 100.819 15.123 100.934 15.2472 101.01C15.3763 101.082 15.546 101.118 15.7563 101.118C15.871 101.118 15.9737 101.104 16.0645 101.075C16.1601 101.046 16.2414 101.003 16.3083 100.946C16.3752 100.888 16.4278 100.817 16.466 100.731C16.5043 100.645 16.5234 100.547 16.5234 100.437H17.4984C17.4984 100.676 17.4554 100.884 17.3694 101.061C17.2834 101.237 17.1639 101.386 17.0109 101.505C16.858 101.62 16.6739 101.708 16.4589 101.77C16.2486 101.828 16.0144 101.856 15.7563 101.856ZM14.8816 99.4761H16.4732C16.4732 99.3327 16.4541 99.2084 16.4158 99.1033C16.3824 98.9981 16.3346 98.9121 16.2725 98.8452C16.2103 98.7783 16.1339 98.7305 16.043 98.7018C15.957 98.6683 15.859 98.6516 15.7491 98.6516C15.5675 98.6516 15.4145 98.6827 15.2902 98.7448C15.1708 98.8022 15.0776 98.893 15.0106 99.0173C14.9485 99.1367 14.9055 99.2897 14.8816 99.4761ZM18.2296 101.77V97.9992H19.0541L19.133 98.5871H19.1831C19.2309 98.4628 19.2931 98.3505 19.3695 98.2501C19.446 98.145 19.5416 98.0613 19.6563 97.9992C19.771 97.9371 19.9049 97.906 20.0578 97.906C20.1391 97.906 20.2132 97.9156 20.2801 97.9347C20.347 97.949 20.3972 97.9633 20.4306 97.9777V98.881H20.1223C19.9742 98.881 19.8427 98.9025 19.728 98.9456C19.6181 98.9838 19.5249 99.0459 19.4484 99.132C19.3719 99.218 19.3146 99.3232 19.2763 99.4474C19.2429 99.5717 19.2262 99.7175 19.2262 99.8848V101.77H18.2296ZM21.8797 101.856C21.7554 101.856 21.6216 101.842 21.4782 101.813C21.3396 101.785 21.2082 101.734 21.0839 101.663C20.9596 101.586 20.8569 101.479 20.7756 101.34C20.6991 101.197 20.6609 101.015 20.6609 100.795C20.6609 100.532 20.7182 100.315 20.833 100.143C20.9477 99.9708 21.1102 99.837 21.3205 99.7414C21.5356 99.641 21.7913 99.5717 22.0876 99.5335C22.3839 99.4952 22.7113 99.4761 23.0698 99.4761V99.1965C23.0698 99.0866 23.0507 98.991 23.0125 98.9097C22.979 98.8285 22.9169 98.7639 22.8261 98.7161C22.74 98.6683 22.6181 98.6444 22.4604 98.6444C22.3027 98.6444 22.1736 98.6636 22.0733 98.7018C21.9777 98.74 21.9084 98.7902 21.8654 98.8524C21.8271 98.9097 21.808 98.9742 21.808 99.0459V99.132H20.8401C20.8353 99.1081 20.833 99.0866 20.833 99.0674C20.833 99.0435 20.833 99.0149 20.833 98.9814C20.833 98.7615 20.8999 98.5728 21.0337 98.415C21.1675 98.2525 21.3563 98.1282 21.6001 98.0422C21.8438 97.9562 22.1282 97.9132 22.4532 97.9132C22.8022 97.9132 23.0937 97.9586 23.3279 98.0494C23.5669 98.1402 23.7485 98.274 23.8728 98.4509C24.0018 98.6277 24.0664 98.85 24.0664 99.1176V100.831C24.0664 100.917 24.0903 100.982 24.1381 101.025C24.1906 101.063 24.248 101.082 24.3101 101.082H24.5467V101.734C24.4989 101.758 24.4248 101.782 24.3245 101.806C24.2241 101.835 24.1022 101.849 23.9588 101.849C23.8202 101.849 23.696 101.828 23.586 101.785C23.4809 101.746 23.3924 101.691 23.3208 101.62C23.2491 101.543 23.1989 101.452 23.1702 101.347H23.12C23.0388 101.448 22.9384 101.536 22.8189 101.613C22.7042 101.689 22.568 101.749 22.4102 101.792C22.2573 101.835 22.0804 101.856 21.8797 101.856ZM22.2167 101.104C22.3505 101.104 22.47 101.084 22.5751 101.046C22.6803 101.003 22.7687 100.948 22.8404 100.881C22.9121 100.81 22.9671 100.724 23.0053 100.623C23.0483 100.523 23.0698 100.415 23.0698 100.301V100.093C22.8022 100.093 22.5632 100.112 22.3529 100.15C22.1426 100.183 21.9753 100.243 21.851 100.329C21.7315 100.415 21.6718 100.535 21.6718 100.688C21.6718 100.774 21.6933 100.848 21.7363 100.91C21.7793 100.972 21.8415 101.02 21.9227 101.053C22.004 101.087 22.1019 101.104 22.2167 101.104ZM25.6586 103.118C25.4913 103.118 25.3335 103.082 25.1854 103.011C25.0372 102.944 24.9177 102.843 24.8269 102.71C24.7361 102.576 24.6907 102.416 24.6907 102.229C24.6907 102.019 24.7504 101.852 24.8699 101.727C24.9942 101.598 25.1328 101.503 25.2857 101.441C25.1758 101.378 25.085 101.297 25.0133 101.197C24.9464 101.096 24.9129 100.979 24.9129 100.845C24.9129 100.659 24.9798 100.509 25.1137 100.394C25.2523 100.274 25.41 100.198 25.5869 100.164C25.41 100.054 25.2714 99.9158 25.171 99.7485C25.0754 99.5765 25.0276 99.3853 25.0276 99.175C25.0276 98.9025 25.0946 98.6731 25.2284 98.4867C25.367 98.3003 25.563 98.1593 25.8163 98.0637C26.0744 97.9633 26.3779 97.9132 26.7268 97.9132C26.8654 97.9132 26.9945 97.9203 27.1139 97.9347C27.2382 97.949 27.3505 97.9729 27.4509 98.0064C27.6278 97.9012 27.7472 97.7865 27.8094 97.6622C27.8763 97.5332 27.9121 97.4304 27.9169 97.3539H28.8418C28.8418 97.5308 28.8083 97.6837 28.7414 97.8128C28.6793 97.9418 28.5885 98.0494 28.469 98.1354C28.3495 98.2167 28.2061 98.2764 28.0388 98.3147C28.1631 98.4198 28.2587 98.5465 28.3256 98.6946C28.3925 98.8428 28.426 99.0029 28.426 99.175C28.426 99.4426 28.3614 99.6721 28.2324 99.8633C28.1033 100.05 27.9193 100.193 27.6803 100.293C27.4461 100.394 27.1641 100.444 26.8343 100.444H26.2608C26.1461 100.444 26.06 100.465 26.0027 100.509C25.9453 100.547 25.9167 100.604 25.9167 100.681C25.9167 100.743 25.9405 100.798 25.9883 100.845C26.0409 100.888 26.1246 100.91 26.2393 100.91H27.8094C28.1248 100.91 28.3758 101.008 28.5622 101.204C28.7534 101.395 28.849 101.641 28.849 101.942C28.849 102.172 28.7892 102.375 28.6697 102.552C28.5502 102.729 28.3853 102.867 28.175 102.968C27.9647 103.068 27.7234 103.118 27.4509 103.118H25.6586ZM26.0744 102.451H27.4007C27.4868 102.451 27.5632 102.435 27.6301 102.401C27.6971 102.373 27.7496 102.33 27.7879 102.272C27.8261 102.22 27.8452 102.157 27.8452 102.086C27.8452 101.962 27.807 101.868 27.7305 101.806C27.654 101.744 27.5585 101.713 27.4437 101.713H26.0744C25.9597 101.713 25.8641 101.746 25.7876 101.813C25.7159 101.88 25.6801 101.969 25.6801 102.079C25.6801 102.189 25.7159 102.277 25.7876 102.344C25.8641 102.416 25.9597 102.451 26.0744 102.451ZM26.7268 99.7987C26.961 99.7987 27.1378 99.7462 27.2573 99.641C27.3816 99.5311 27.4437 99.3757 27.4437 99.175C27.4437 98.9742 27.3816 98.8213 27.2573 98.7161C27.1378 98.6062 26.961 98.5512 26.7268 98.5512C26.4974 98.5512 26.3205 98.6062 26.1963 98.7161C26.0768 98.8213 26.017 98.9742 26.017 99.175C26.017 99.304 26.0433 99.4164 26.0959 99.5119C26.1485 99.6075 26.2273 99.6792 26.3325 99.727C26.4376 99.7748 26.5691 99.7987 26.7268 99.7987ZM31.1104 101.856C30.6945 101.856 30.3456 101.787 30.0636 101.648C29.7816 101.505 29.5689 101.288 29.4255 100.996C29.2821 100.704 29.2105 100.334 29.2105 99.8848C29.2105 99.4307 29.2821 99.0603 29.4255 98.7735C29.5689 98.4819 29.7792 98.2669 30.0564 98.1282C30.3384 97.9849 30.6826 97.9132 31.0888 97.9132C31.4712 97.9132 31.7938 97.9825 32.0567 98.1211C32.3196 98.2549 32.518 98.4652 32.6518 98.752C32.7856 99.034 32.8525 99.3996 32.8525 99.8489V100.107H30.2213C30.2309 100.327 30.2644 100.513 30.3217 100.666C30.3838 100.819 30.4771 100.934 30.6013 101.01C30.7304 101.082 30.9 101.118 31.1104 101.118C31.2251 101.118 31.3278 101.104 31.4186 101.075C31.5142 101.046 31.5955 101.003 31.6624 100.946C31.7293 100.888 31.7819 100.817 31.8201 100.731C31.8584 100.645 31.8775 100.547 31.8775 100.437H32.8525C32.8525 100.676 32.8095 100.884 32.7235 101.061C32.6374 101.237 32.518 101.386 32.365 101.505C32.2121 101.62 32.028 101.708 31.813 101.77C31.6027 101.828 31.3685 101.856 31.1104 101.856ZM30.2357 99.4761H31.8273C31.8273 99.3327 31.8082 99.2084 31.7699 99.1033C31.7365 98.9981 31.6887 98.9121 31.6266 98.8452C31.5644 98.7783 31.4879 98.7305 31.3971 98.7018C31.3111 98.6683 31.2131 98.6516 31.1032 98.6516C30.9216 98.6516 30.7686 98.6827 30.6443 98.7448C30.5248 98.8022 30.4316 98.893 30.3647 99.0173C30.3026 99.1367 30.2596 99.2897 30.2357 99.4761Z" fill="#080A47"/>
<path d="M5.26522 120.278V115.36H7.82471C8.1784 115.36 8.47235 115.427 8.70655 115.561C8.94553 115.69 9.12477 115.874 9.24426 116.113C9.36853 116.347 9.43067 116.626 9.43067 116.951C9.43067 117.276 9.36614 117.561 9.23709 117.805C9.11282 118.044 8.9288 118.23 8.68504 118.364C8.44128 118.498 8.14256 118.565 7.78886 118.565H6.33346V120.278H5.26522ZM6.33346 117.69H7.64547C7.87012 117.69 8.04218 117.625 8.16167 117.496C8.28594 117.367 8.34808 117.188 8.34808 116.959C8.34808 116.801 8.32179 116.669 8.26922 116.564C8.21664 116.459 8.13778 116.378 8.03262 116.321C7.93225 116.263 7.8032 116.235 7.64547 116.235H6.33346V117.69ZM11.7102 120.364C11.2991 120.364 10.9502 120.295 10.6634 120.156C10.3766 120.013 10.1592 119.795 10.011 119.504C9.86283 119.207 9.78875 118.837 9.78875 118.393C9.78875 117.938 9.86283 117.568 10.011 117.281C10.1592 116.99 10.3766 116.775 10.6634 116.636C10.9502 116.493 11.2991 116.421 11.7102 116.421C12.1308 116.421 12.4821 116.493 12.7641 116.636C13.0508 116.775 13.2683 116.99 13.4165 117.281C13.5647 117.568 13.6387 117.938 13.6387 118.393C13.6387 118.837 13.5647 119.207 13.4165 119.504C13.2683 119.795 13.0508 120.013 12.7641 120.156C12.4821 120.295 12.1308 120.364 11.7102 120.364ZM11.7102 119.59C11.93 119.59 12.1045 119.549 12.2335 119.468C12.3674 119.387 12.4653 119.262 12.5275 119.095C12.5896 118.928 12.6207 118.722 12.6207 118.479V118.306C12.6207 118.063 12.5896 117.857 12.5275 117.69C12.4653 117.523 12.3674 117.398 12.2335 117.317C12.1045 117.231 11.93 117.188 11.7102 117.188C11.4951 117.188 11.3206 117.231 11.1868 117.317C11.0577 117.398 10.9621 117.523 10.9 117.69C10.8379 117.857 10.8068 118.063 10.8068 118.306V118.479C10.8068 118.722 10.8379 118.928 10.9 119.095C10.9621 119.262 11.0577 119.387 11.1868 119.468C11.3206 119.549 11.4951 119.59 11.7102 119.59ZM16.107 120.364C15.696 120.364 15.3471 120.295 15.0603 120.156C14.7735 120.013 14.5561 119.795 14.4079 119.504C14.2597 119.207 14.1856 118.837 14.1856 118.393C14.1856 117.938 14.2597 117.568 14.4079 117.281C14.5561 116.99 14.7735 116.775 15.0603 116.636C15.3471 116.493 15.696 116.421 16.107 116.421C16.5277 116.421 16.879 116.493 17.161 116.636C17.4477 116.775 17.6652 116.99 17.8134 117.281C17.9615 117.568 18.0356 117.938 18.0356 118.393C18.0356 118.837 17.9615 119.207 17.8134 119.504C17.6652 119.795 17.4477 120.013 17.161 120.156C16.879 120.295 16.5277 120.364 16.107 120.364ZM16.107 119.59C16.3269 119.59 16.5014 119.549 16.6304 119.468C16.7642 119.387 16.8622 119.262 16.9244 119.095C16.9865 118.928 17.0176 118.722 17.0176 118.479V118.306C17.0176 118.063 16.9865 117.857 16.9244 117.69C16.8622 117.523 16.7642 117.398 16.6304 117.317C16.5014 117.231 16.3269 117.188 16.107 117.188C15.892 117.188 15.7175 117.231 15.5837 117.317C15.4546 117.398 15.359 117.523 15.2969 117.69C15.2348 117.857 15.2037 118.063 15.2037 118.306V118.479C15.2037 118.722 15.2348 118.928 15.2969 119.095C15.359 119.262 15.4546 119.387 15.5837 119.468C15.7175 119.549 15.892 119.59 16.107 119.59ZM18.7689 120.278V116.507H19.5934L19.6723 117.095H19.7225C19.7703 116.971 19.8324 116.858 19.9089 116.758C19.9853 116.653 20.0809 116.569 20.1956 116.507C20.3104 116.445 20.4442 116.414 20.5971 116.414C20.6784 116.414 20.7525 116.423 20.8194 116.442C20.8863 116.457 20.9365 116.471 20.9699 116.485V117.389H20.6617C20.5135 117.389 20.382 117.41 20.2673 117.453C20.1574 117.492 20.0642 117.554 19.9877 117.64C19.9113 117.726 19.8539 117.831 19.8157 117.955C19.7822 118.079 19.7655 118.225 19.7655 118.393V120.278H18.7689Z" fill="#080A47"/>
<path d="M6.62137 138.786V134.764H5.0441V133.868H9.28124V134.764H7.69679V138.786H6.62137ZM11.056 138.872C10.6402 138.872 10.2913 138.802 10.0093 138.664C9.72728 138.52 9.51458 138.303 9.37119 138.011C9.2278 137.72 9.15611 137.349 9.15611 136.9C9.15611 136.446 9.2278 136.076 9.37119 135.789C9.51458 135.497 9.72489 135.282 10.0021 135.144C10.2841 135 10.6282 134.929 11.0345 134.929C11.4169 134.929 11.7395 134.998 12.0024 135.137C12.2653 135.27 12.4636 135.481 12.5974 135.767C12.7313 136.049 12.7982 136.415 12.7982 136.864V137.122H10.167C10.1766 137.342 10.21 137.529 10.2674 137.682C10.3295 137.835 10.4227 137.949 10.547 138.026C10.676 138.097 10.8457 138.133 11.056 138.133C11.1707 138.133 11.2735 138.119 11.3643 138.09C11.4599 138.062 11.5411 138.019 11.6081 137.961C11.675 137.904 11.7276 137.832 11.7658 137.746C11.804 137.66 11.8231 137.562 11.8231 137.452H12.7982C12.7982 137.691 12.7552 137.899 12.6691 138.076C12.5831 138.253 12.4636 138.401 12.3107 138.52C12.1577 138.635 11.9737 138.724 11.7586 138.786C11.5483 138.843 11.3141 138.872 11.056 138.872ZM10.1813 136.492H11.773C11.773 136.348 11.7538 136.224 11.7156 136.119C11.6821 136.014 11.6343 135.928 11.5722 135.861C11.5101 135.794 11.4336 135.746 11.3428 135.717C11.2568 135.684 11.1588 135.667 11.0488 135.667C10.8672 135.667 10.7143 135.698 10.59 135.76C10.4705 135.818 10.3773 135.908 10.3104 136.033C10.2483 136.152 10.2052 136.305 10.1813 136.492ZM13.5294 138.786V135.015H14.3538L14.4327 135.603H14.4829C14.5307 135.478 14.5928 135.366 14.6693 135.266C14.7458 135.16 14.8414 135.077 14.9561 135.015C15.0708 134.953 15.2046 134.921 15.3576 134.921C15.4388 134.921 15.5129 134.931 15.5798 134.95C15.6467 134.964 15.6969 134.979 15.7304 134.993V135.896H15.4221C15.2739 135.896 15.1425 135.918 15.0278 135.961C14.9178 135.999 14.8246 136.061 14.7482 136.147C14.6717 136.233 14.6143 136.339 14.5761 136.463C14.5426 136.587 14.5259 136.733 14.5259 136.9V138.786H13.5294ZM16.2529 138.786V135.015H17.0774L17.1563 135.603H17.2064C17.2542 135.478 17.3164 135.366 17.3928 135.266C17.4693 135.16 17.5649 135.077 17.6796 135.015C17.7943 134.953 17.9282 134.921 18.0811 134.921C18.1624 134.921 18.2365 134.931 18.3034 134.95C18.3703 134.964 18.4205 134.979 18.4539 134.993V135.896H18.1456C17.9975 135.896 17.866 135.918 17.7513 135.961C17.6414 135.999 17.5482 136.061 17.4717 136.147C17.3952 136.233 17.3379 136.339 17.2996 136.463C17.2662 136.587 17.2495 136.733 17.2495 136.9V138.786H16.2529ZM18.9765 134.463V133.602H19.973V134.463H18.9765ZM18.9765 138.786V135.015H19.973V138.786H18.9765ZM22.9957 138.872C22.7519 138.872 22.5273 138.824 22.3217 138.728C22.121 138.628 21.9585 138.477 21.8342 138.277H21.784L21.7052 138.786H20.8878V133.602H21.8844V135.43H21.9274C22.0039 135.321 22.0971 135.227 22.207 135.151C22.317 135.074 22.4412 135.019 22.5798 134.986C22.7184 134.948 22.869 134.929 23.0315 134.929C23.3278 134.929 23.5859 134.998 23.8058 135.137C24.0304 135.275 24.2049 135.49 24.3292 135.782C24.4534 136.069 24.5156 136.439 24.5156 136.893C24.5156 137.347 24.4534 137.72 24.3292 138.011C24.2097 138.303 24.0352 138.52 23.8058 138.664C23.5812 138.802 23.3111 138.872 22.9957 138.872ZM22.6874 138.054C22.8881 138.054 23.0458 138.016 23.1606 137.94C23.28 137.859 23.3661 137.739 23.4187 137.581C23.4712 137.424 23.4975 137.225 23.4975 136.986V136.821C23.4975 136.582 23.4712 136.384 23.4187 136.226C23.3661 136.064 23.28 135.944 23.1606 135.868C23.0458 135.787 22.8881 135.746 22.6874 135.746C22.544 135.746 22.4221 135.772 22.3217 135.825C22.2214 135.873 22.1377 135.944 22.0708 136.04C22.0087 136.131 21.9609 136.245 21.9274 136.384C21.894 136.523 21.8772 136.676 21.8772 136.843V136.972C21.8772 137.197 21.9059 137.39 21.9633 137.553C22.0206 137.715 22.109 137.839 22.2285 137.925C22.348 138.011 22.501 138.054 22.6874 138.054ZM25.2497 138.786V133.602H26.2463V138.786H25.2497ZM28.8746 138.872C28.4588 138.872 28.1099 138.802 27.8279 138.664C27.5459 138.52 27.3332 138.303 27.1898 138.011C27.0464 137.72 26.9747 137.349 26.9747 136.9C26.9747 136.446 27.0464 136.076 27.1898 135.789C27.3332 135.497 27.5435 135.282 27.8207 135.144C28.1027 135 28.4468 134.929 28.8531 134.929C29.2355 134.929 29.5581 134.998 29.821 135.137C30.0839 135.27 30.2822 135.481 30.416 135.767C30.5499 136.049 30.6168 136.415 30.6168 136.864V137.122H27.9856C27.9952 137.342 28.0286 137.529 28.086 137.682C28.1481 137.835 28.2413 137.949 28.3656 138.026C28.4946 138.097 28.6643 138.133 28.8746 138.133C28.9893 138.133 29.0921 138.119 29.1829 138.09C29.2785 138.062 29.3597 138.019 29.4267 137.961C29.4936 137.904 29.5461 137.832 29.5844 137.746C29.6226 137.66 29.6417 137.562 29.6417 137.452H30.6168C30.6168 137.691 30.5738 137.899 30.4877 138.076C30.4017 138.253 30.2822 138.401 30.1293 138.52C29.9763 138.635 29.7923 138.724 29.5772 138.786C29.3669 138.843 29.1327 138.872 28.8746 138.872ZM27.9999 136.492H29.5915C29.5915 136.348 29.5724 136.224 29.5342 136.119C29.5007 136.014 29.4529 135.928 29.3908 135.861C29.3287 135.794 29.2522 135.746 29.1614 135.717C29.0753 135.684 28.9774 135.667 28.8674 135.667C28.6858 135.667 28.5329 135.698 28.4086 135.76C28.2891 135.818 28.1959 135.908 28.129 136.033C28.0668 136.152 28.0238 136.305 27.9999 136.492Z" fill="#080A47"/>
<g clip-path="url(#clip3_9665_17605)">
<rect x="48" y="58.6504" width="100.343" height="7.083" fill="url(#paint4_linear_9665_17605)"/>
<path d="M148.343 58.6504H205.007C206.963 58.6504 208.548 60.236 208.548 62.1919C208.548 64.1478 206.963 65.7334 205.007 65.7334H148.343V58.6504Z" fill="#F4F6F9"/>
</g>
<g clip-path="url(#clip4_9665_17605)">
<rect x="48" y="77.5384" width="33.054" height="7.083" fill="url(#paint5_linear_9665_17605)"/>
<path d="M81.054 77.5384H205.007C206.962 77.5384 208.548 79.124 208.548 81.0799C208.548 83.0358 206.962 84.6214 205.007 84.6214H81.054V77.5384Z" fill="#F4F6F9"/>
</g>
<g clip-path="url(#clip5_9665_17605)">
<rect x="48" y="96.4264" width="17.7075" height="7.083" fill="url(#paint6_linear_9665_17605)"/>
<path d="M65.7075 96.4264H205.007C206.963 96.4264 208.548 98.012 208.548 99.9679C208.548 101.924 206.963 103.509 205.007 103.509H65.7075V96.4264Z" fill="#F4F6F9"/>
</g>
<g clip-path="url(#clip6_9665_17605)">
<rect x="48" y="115.314" width="9.44401" height="7.083" fill="url(#paint7_linear_9665_17605)"/>
<path d="M57.444 115.314H205.007C206.962 115.314 208.548 116.9 208.548 118.856C208.548 120.812 206.962 122.397 205.007 122.397H57.444V115.314Z" fill="#F4F6F9"/>
</g>
<g clip-path="url(#clip7_9665_17605)">
<rect x="48" y="134.202" width="1.1805" height="7.083" fill="url(#paint8_linear_9665_17605)"/>
<path d="M49.1805 134.202H205.007C206.963 134.202 208.548 135.788 208.548 137.744C208.548 139.7 206.963 141.285 205.007 141.285H49.1805V134.202Z" fill="#F4F6F9"/>
</g>
<rect x="1.5" y="2.15039" width="218" height="148" rx="8.5" stroke="#080A47" stroke-width="3"/>
<defs>
<linearGradient id="paint0_linear_9665_17605" x1="10.6245" y1="41.2334" x2="22.4386" y2="41.2334" gradientUnits="userSpaceOnUse">
<stop stop-color="#F09819"/>
<stop offset="1" stop-color="#EDDE5D"/>
</linearGradient>
<linearGradient id="paint1_linear_9665_17605" x1="24.7905" y1="41.2334" x2="36.6046" y2="41.2334" gradientUnits="userSpaceOnUse">
<stop stop-color="#F09819"/>
<stop offset="1" stop-color="#EDDE5D"/>
</linearGradient>
<linearGradient id="paint2_linear_9665_17605" x1="38.9565" y1="41.2334" x2="50.7706" y2="41.2334" gradientUnits="userSpaceOnUse">
<stop stop-color="#F09819"/>
<stop offset="1" stop-color="#EDDE5D"/>
</linearGradient>
<linearGradient id="paint3_linear_9665_17605" x1="53.1225" y1="41.2334" x2="64.9366" y2="41.2334" gradientUnits="userSpaceOnUse">
<stop stop-color="#F09819"/>
<stop offset="1" stop-color="#EDDE5D"/>
</linearGradient>
<linearGradient id="paint4_linear_9665_17605" x1="48" y1="62.1919" x2="148.343" y2="62.1919" gradientUnits="userSpaceOnUse">
<stop stop-color="#EDDE5D"/>
<stop offset="1" stop-color="#F09819"/>
</linearGradient>
<linearGradient id="paint5_linear_9665_17605" x1="48" y1="81.0799" x2="81.054" y2="81.0799" gradientUnits="userSpaceOnUse">
<stop stop-color="#EDDE5D"/>
<stop offset="1" stop-color="#F09819"/>
</linearGradient>
<linearGradient id="paint6_linear_9665_17605" x1="48" y1="99.9679" x2="65.7075" y2="99.9679" gradientUnits="userSpaceOnUse">
<stop stop-color="#EDDE5D"/>
<stop offset="1" stop-color="#F09819"/>
</linearGradient>
<linearGradient id="paint7_linear_9665_17605" x1="48" y1="118.856" x2="57.444" y2="118.856" gradientUnits="userSpaceOnUse">
<stop stop-color="#EDDE5D"/>
<stop offset="1" stop-color="#F09819"/>
</linearGradient>
<linearGradient id="paint8_linear_9665_17605" x1="48" y1="137.744" x2="49.1805" y2="137.744" gradientUnits="userSpaceOnUse">
<stop stop-color="#EDDE5D"/>
<stop offset="1" stop-color="#F09819"/>
</linearGradient>
<clipPath id="clip0_9665_17605">
<rect width="165" height="25.166" fill="white" transform="translate(0 28.6504)"/>
</clipPath>
<clipPath id="clip1_9665_17605">
<rect width="69.3794" height="11" fill="white" transform="translate(86.1765 35.7334)"/>
</clipPath>
<clipPath id="clip2_9665_17605">
<rect width="94.44" height="11" fill="white" transform="translate(86.1765 35.7334)"/>
</clipPath>
<clipPath id="clip3_9665_17605">
<rect width="160.548" height="7.083" fill="white" transform="translate(48 58.6504)"/>
</clipPath>
<clipPath id="clip4_9665_17605">
<rect width="160.548" height="7.083" fill="white" transform="translate(48 77.5384)"/>
</clipPath>
<clipPath id="clip5_9665_17605">
<rect width="160.548" height="7.083" fill="white" transform="translate(48 96.4264)"/>
</clipPath>
<clipPath id="clip6_9665_17605">
<rect width="160.548" height="7.083" fill="white" transform="translate(48 115.314)"/>
</clipPath>
<clipPath id="clip7_9665_17605">
<rect width="160.548" height="7.083" fill="white" transform="translate(48 134.202)"/>
</clipPath>
</defs>
</svg>
