<svg width="1600" height="964" viewBox="0 0 1600 964" fill="none" xmlns="http://www.w3.org/2000/svg">
<mask id="mask0_9665_16972" style="mask-type:alpha" maskUnits="userSpaceOnUse" x="0" y="0" width="1600" height="964">
<rect width="1600" height="964" fill="#FFF9F3"/>
</mask>
<g mask="url(#mask0_9665_16972)">
<g opacity="0.6" filter="url(#filter0_f_9665_16972)">
<circle cx="1611" cy="190" r="292" fill="url(#paint0_radial_9665_16972)"/>
</g>
<g opacity="0.6" filter="url(#filter1_f_9665_16972)">
<circle cx="-28.5" cy="879.5" r="327.5" fill="url(#paint1_radial_9665_16972)"/>
</g>
<path d="M2.62705 136C2.62705 136 144.091 317.341 138.858 445.845C135.151 536.888 93.3712 613.523 34.9022 695.744C0 744.825 0 828 0 828" stroke="white" stroke-width="4"/>
<path d="M1600 -6C1600 -6 1477.4 113.083 1465.31 228.31C1453.58 340.198 1487.29 426.695 1549.15 523.383C1600 602.874 1600 781 1600 781" stroke="white" stroke-width="4"/>
</g>
<defs>
<filter id="filter0_f_9665_16972" x="1057.51" y="-363.493" width="1106.99" height="1106.99" filterUnits="userSpaceOnUse" color-interpolation-filters="sRGB">
<feFlood flood-opacity="0" result="BackgroundImageFix"/>
<feBlend mode="normal" in="SourceGraphic" in2="BackgroundImageFix" result="shape"/>
<feGaussianBlur stdDeviation="130.746" result="effect1_foregroundBlur_9665_16972"/>
</filter>
<filter id="filter1_f_9665_16972" x="-602.269" y="305.731" width="1147.54" height="1147.54" filterUnits="userSpaceOnUse" color-interpolation-filters="sRGB">
<feFlood flood-opacity="0" result="BackgroundImageFix"/>
<feBlend mode="normal" in="SourceGraphic" in2="BackgroundImageFix" result="shape"/>
<feGaussianBlur stdDeviation="123.134" result="effect1_foregroundBlur_9665_16972"/>
</filter>
<radialGradient id="paint0_radial_9665_16972" cx="0" cy="0" r="1" gradientUnits="userSpaceOnUse" gradientTransform="translate(1611 190) rotate(90) scale(292)">
<stop offset="0.390625" stop-color="#F480D4"/>
<stop offset="1" stop-color="#F480D4" stop-opacity="0"/>
</radialGradient>
<radialGradient id="paint1_radial_9665_16972" cx="0" cy="0" r="1" gradientUnits="userSpaceOnUse" gradientTransform="translate(-28.5 879.5) rotate(90) scale(327.5)">
<stop offset="0.390625" stop-color="#45C9C1"/>
<stop offset="1" stop-color="#45C9C1" stop-opacity="0"/>
</radialGradient>
</defs>
</svg>
