<svg width="1600" height="1494" viewBox="0 0 1600 1494" fill="none" xmlns="http://www.w3.org/2000/svg">
<mask id="mask0_9665_17763" style="mask-type:alpha" maskUnits="userSpaceOnUse" x="0" y="0" width="1600" height="1494">
<rect width="1600" height="1494" fill="#FFF9F3"/>
</mask>
<g mask="url(#mask0_9665_17763)">
<g filter="url(#filter0_f_9665_17763)">
<ellipse cx="1214" cy="1233" rx="292" ry="275" fill="url(#paint0_radial_9665_17763)"/>
</g>
<g filter="url(#filter1_f_9665_17763)">
<ellipse cx="346" cy="908" rx="275" ry="249" fill="url(#paint1_radial_9665_17763)"/>
</g>
<path d="M-1.5 -2.40967C-1.5 -2.40967 186.971 289.17 180 495.791C175.061 642.179 119.398 765.401 41.5 897.605C-5 976.522 -5 1110.26 -5 1110.26" stroke="white" stroke-width="6"/>
<path d="M1600.26 350.006C1600.26 350.006 1452.56 522.377 1438 689.168C1423.86 851.124 1464.48 976.328 1539 1116.28C1600.26 1231.35 1600.26 1489.18 1600.26 1489.18" stroke="white" stroke-width="6"/>
</g>
<defs>
<filter id="filter0_f_9665_17763" x="660.507" y="696.507" width="1106.99" height="1072.99" filterUnits="userSpaceOnUse" color-interpolation-filters="sRGB">
<feFlood flood-opacity="0" result="BackgroundImageFix"/>
<feBlend mode="normal" in="SourceGraphic" in2="BackgroundImageFix" result="shape"/>
<feGaussianBlur stdDeviation="130.746" result="effect1_foregroundBlur_9665_17763"/>
</filter>
<filter id="filter1_f_9665_17763" x="-175.269" y="412.731" width="1042.54" height="990.537" filterUnits="userSpaceOnUse" color-interpolation-filters="sRGB">
<feFlood flood-opacity="0" result="BackgroundImageFix"/>
<feBlend mode="normal" in="SourceGraphic" in2="BackgroundImageFix" result="shape"/>
<feGaussianBlur stdDeviation="123.134" result="effect1_foregroundBlur_9665_17763"/>
</filter>
<radialGradient id="paint0_radial_9665_17763" cx="0" cy="0" r="1" gradientUnits="userSpaceOnUse" gradientTransform="translate(1214 1233) rotate(90) scale(275 292)">
<stop offset="0.390625" stop-color="#F480D4"/>
<stop offset="1" stop-color="#F480D4" stop-opacity="0"/>
</radialGradient>
<radialGradient id="paint1_radial_9665_17763" cx="0" cy="0" r="1" gradientUnits="userSpaceOnUse" gradientTransform="translate(346 908) rotate(90) scale(249 275)">
<stop offset="0.390625" stop-color="#45C9C1"/>
<stop offset="1" stop-color="#45C9C1" stop-opacity="0"/>
</radialGradient>
</defs>
</svg>
